<?xml version="1.0" encoding="UTF-8" standalone="no"?>
<!-- Created with Inkscape (http://www.inkscape.org/) -->

<svg
   xmlns:dc="http://purl.org/dc/elements/1.1/"
   xmlns:cc="http://creativecommons.org/ns#"
   xmlns:rdf="http://www.w3.org/1999/02/22-rdf-syntax-ns#"
   xmlns:svg="http://www.w3.org/2000/svg"
   xmlns="http://www.w3.org/2000/svg"
   xmlns:sodipodi="http://sodipodi.sourceforge.net/DTD/sodipodi-0.dtd"
   xmlns:inkscape="http://www.inkscape.org/namespaces/inkscape"
   width="61.999977mm"
   height="29.604977mm"
   viewBox="0 0 61.999978 29.604977"
   version="1.1"
   id="svg8"
   inkscape:version="0.92.4 (5da689c313, 2019-01-14)"
   sodipodi:docname="LTU logo.svg">
  <defs
     id="defs2" />
  <sodipodi:namedview
     id="base"
     pagecolor="#ffffff"
     bordercolor="#666666"
     borderopacity="1.0"
     inkscape:pageopacity="0.0"
     inkscape:pageshadow="2"
     inkscape:zoom="1.4"
     inkscape:cx="-199.10984"
     inkscape:cy="42.668861"
     inkscape:document-units="mm"
     inkscape:current-layer="layer1"
     showgrid="false"
     fit-margin-top="0"
     fit-margin-left="0"
     fit-margin-right="0"
     fit-margin-bottom="0"
     inkscape:window-width="1366"
     inkscape:window-height="705"
     inkscape:window-x="-8"
     inkscape:window-y="-8"
     inkscape:window-maximized="1" />
  <metadata
     id="metadata5">
    <rdf:RDF>
      <cc:Work
         rdf:about="">
        <dc:format>image/svg+xml</dc:format>
        <dc:type
           rdf:resource="http://purl.org/dc/dcmitype/StillImage" />
        <dc:title />
      </cc:Work>
    </rdf:RDF>
  </metadata>
  <g
     inkscape:label="Layer 1"
     inkscape:groupmode="layer"
     id="layer1"
     transform="translate(-60.742653,-125.4547)">
    <g
       id="g921">
      <path
         d="m 81.445182,140.92043 h -2.720517 v -0.1167 h 0.200942 c 0.279859,0 0.382941,-0.091 0.382941,-0.40156 v -2.69635 c 0,-0.32174 -0.09716,-0.45544 -0.480942,-0.45544 h -0.08516 v -0.11642 h 1.795851 v 0.11642 H 80.31259 c -0.395923,0 -0.499005,0.0427 -0.499005,0.4191 v 2.80614 c 0,0.16481 0.06699,0.22517 0.243805,0.22517 h 0.894609 c 0.358564,0 0.468136,-0.13934 0.851888,-0.6696 h 0.109291 l -0.467995,0.88924"
         style="fill:#231f20;fill-opacity:1;fill-rule:evenodd;stroke:none;stroke-width:0.03527778"
         id="path867"
         inkscape:connector-curvature="0" />
      <path
         d="m 87.438136,137.13396 v 0.11642 c -0.408164,0.005 -0.554779,0.17004 -0.554779,0.55986 v 1.64218 c 0,0.75406 -0.480236,1.56436 -1.800966,1.56436 -1.162508,0 -1.758526,-0.66284 -1.758526,-1.53367 v -1.77729 c 0,-0.38841 -0.109397,-0.45015 -0.52377,-0.45544 v -0.11642 h 1.563794 v 0.11642 h -0.05443 c -0.334856,0 -0.48066,0.091 -0.48066,0.4445 v 1.69051 c 0,0.82109 0.48066,1.3154 1.387687,1.3154 0.68707,0 1.387687,-0.28539 1.387687,-1.32069 v -1.41852 c 0,-0.58385 -0.09179,-0.68756 -0.59683,-0.7112 v -0.11642 h 1.430797"
         style="fill:#231f20;fill-opacity:1;fill-rule:evenodd;stroke:none;stroke-width:0.03527778"
         id="path869"
         inkscape:connector-curvature="0" />
      <path
         d="m 90.960693,140.92043 h -2.720517 v -0.1167 h 0.201048 c 0.28,0 0.383787,-0.091 0.383787,-0.40156 v -2.69635 c 0,-0.32174 -0.09716,-0.45544 -0.480942,-0.45544 h -0.08597 v -0.11642 h 1.79638 v 0.11642 h -0.225566 c -0.395782,0 -0.498722,0.0427 -0.498722,0.4191 v 2.80614 c 0,0.16481 0.06671,0.22517 0.242958,0.22517 h 0.894609 c 0.359269,0 0.468807,-0.13934 0.851923,-0.6696 h 0.109114 l -0.4681,0.88924"
         style="fill:#231f20;fill-opacity:1;fill-rule:evenodd;stroke:none;stroke-width:0.03527778"
         id="path871"
         inkscape:connector-curvature="0" />
      <path
         d="m 95.031184,139.55014 h -0.115006 c -0.04939,-0.4311 -0.164394,-0.47943 -0.415219,-0.47943 H 93.47367 v 1.29519 c 0,0.28004 0.1016,0.33489 0.328083,0.33489 h 0.937684 c 0.425802,0 0.551744,-0.16457 0.70485,-0.6871 h 0.109361 l -0.09737,0.90674 H 92.22434 v -0.1167 h 0.170744 c 0.486975,0 0.571641,-0.1337 0.571641,-0.49805 v -2.56811 c 0,-0.34149 -0.07796,-0.48719 -0.486057,-0.48719 h -0.133385 v -0.11642 h 2.920965 l 0.04833,0.84632 h -0.109714 c -0.07761,-0.51717 -0.230011,-0.62689 -0.450144,-0.62689 h -1.28305 v 1.4979 h 1.087261 c 0.219781,0 0.324556,-0.10478 0.355247,-0.45685 h 0.115006 v 1.1557"
         style="fill:#231f20;fill-opacity:1;fill-rule:evenodd;stroke:none;stroke-width:0.03527778"
         id="path873"
         inkscape:connector-curvature="0" />
      <path
         d="m 99.289565,136.18005 c 0,0.3041 -0.249061,0.55457 -0.551745,0.55457 -0.304094,0 -0.55633,-0.25047 -0.55633,-0.55457 0,-0.30409 0.252236,-0.55315 0.55633,-0.55315 0.302684,0 0.551745,0.24906 0.551745,0.55315 z m -0.944386,0 c 0,0.2159 0.174272,0.39229 0.392641,0.39229 0.215548,0 0.391231,-0.17639 0.391231,-0.39229 0,-0.21554 -0.175683,-0.39123 -0.391231,-0.39123 -0.218369,0 -0.392641,0.17569 -0.392641,0.39123 z m -0.356306,3.0607 -0.353483,0.95374 c -0.04269,0.11659 -0.12312,0.29862 -0.12312,0.38572 0,0.16316 0.159456,0.22352 0.493889,0.22352 h 0.09807 v 0.1167 h -1.406525 v -0.1167 c 0.395111,-0.005 0.463198,-0.0735 0.657931,-0.60265 l 1.107369,-3.02443 -0.05468,-0.13264 h 0.530225 l 1.270001,3.37675 c 0.12312,0.32261 0.24906,0.38297 0.55598,0.38297 v 0.1167 h -1.675698 v -0.1167 h 0.159103 c 0.345722,0 0.474133,-0.0361 0.474133,-0.20602 0,-0.0977 -0.04269,-0.18895 -0.06562,-0.24931 l -0.408517,-1.10765 z m 0.620183,-1.68522 -0.51823,1.41746 h 1.052689 z"
         style="fill:#231f20;fill-opacity:1;fill-rule:evenodd;stroke:none;stroke-width:0.03527778"
         id="path875"
         inkscape:connector-curvature="0" />
      <path
         d="m 62.860424,147.38205 c 0,0.32812 0.10929,0.44359 0.480942,0.44359 h 0.224331 v 0.11493 h -1.916712 v -0.11493 h 0.225848 c 0.37084,0 0.480554,-0.11547 0.480554,-0.44359 v -3.00591 H 61.29663 c -0.243628,0 -0.35306,0.13945 -0.444835,0.67373 h -0.109142 l 0.09715,-0.98446 h 0.115066 c 0.007,0.035 0.03115,0.0607 0.06808,0.0727 0.03623,0.0117 0.07814,0.0186 0.121003,0.0186 h 2.927209 c 0.08516,0 0.176954,-0.0186 0.188948,-0.0913 h 0.115041 l 0.09814,0.98446 h -0.110102 c -0.09095,-0.53428 -0.200519,-0.67373 -0.444006,-0.67373 h -1.058757 v 3.00591"
         style="fill:#231f20;fill-opacity:1;fill-rule:evenodd;stroke:none;stroke-width:0.03527778"
         id="path877"
         inkscape:connector-curvature="0" />
      <path
         d="m 68.341427,146.57176 h -0.115076 c -0.04889,-0.43117 -0.164783,-0.47939 -0.414373,-0.47939 h -1.027995 v 1.29508 c 0,0.28152 0.103752,0.33472 0.328366,0.33472 h 0.937225 c 0.426085,0 0.553967,-0.1633 0.705943,-0.68711 h 0.109714 l -0.09758,0.90551 h -3.23148 v -0.11493 h 0.170709 c 0.486057,0 0.571888,-0.1342 0.571888,-0.49855 v -2.56925 c 0,-0.33965 -0.07881,-0.48588 -0.486692,-0.48588 h -0.134091 v -0.11521 h 2.921424 l 0.04822,0.84504 H 68.51838 c -0.0798,-0.51735 -0.230964,-0.62565 -0.450638,-0.62565 h -1.283759 v 1.49655 h 1.089343 c 0.218546,0 0.322298,-0.1035 0.353025,-0.45572 h 0.115076 v 1.15479"
         style="fill:#231f20;fill-opacity:1;fill-rule:evenodd;stroke:none;stroke-width:0.03527778"
         id="path879"
         inkscape:connector-curvature="0" />
      <path
         d="m 72.455169,147.94057 v -0.11493 c 0.279858,-0.007 0.395605,-0.0553 0.395605,-0.17033 0,-0.10308 -0.133668,-0.31072 -0.748807,-0.92533 -0.486727,-0.48645 -0.63253,-0.57739 -0.90043,-0.54667 v 1.13715 c 0,0.38308 0.109714,0.50518 0.487575,0.50518 h 0.07895 v 0.11493 h -1.667686 v -0.11493 h 0.108973 c 0.389855,0 0.487856,-0.1342 0.487856,-0.44359 v -2.67229 c 0,-0.36558 -0.164818,-0.4378 -0.487856,-0.4378 h -0.108973 v -0.11521 h 1.642745 v 0.11521 h -0.05401 c -0.365866,0 -0.487575,0.11508 -0.487575,0.4808 v 1.31382 c 0.237596,-0.0241 0.42665,-0.13367 0.682414,-0.38957 0.473921,-0.47431 0.84515,-1.02221 0.84515,-1.21652 0,-0.13921 -0.09123,-0.18853 -0.419877,-0.18853 v -0.11521 h 1.600871 v 0.11521 c -0.432012,0.005 -0.621101,0.0667 -0.803416,0.24875 -0.188913,0.18905 -0.572276,0.94989 -1.211439,1.43633 0.109996,0.0186 0.218863,0.10954 0.487433,0.37744 0.638845,0.63884 0.979487,1.11471 1.180006,1.31533 0.103505,0.10351 0.262114,0.17583 0.675781,0.17583 v 0.11493 h -1.783291"
         style="fill:#231f20;fill-opacity:1;fill-rule:evenodd;stroke:none;stroke-width:0.03527778"
         id="path881"
         inkscape:connector-curvature="0" />
      <path
         d="m 78.972985,147.98343 -3.152387,-3.29903 v 2.61207 c 0,0.43921 0.09716,0.52917 0.61461,0.52917 v 0.11493 h -1.411676 v -0.11493 h 0.02413 c 0.37786,0 0.49911,-0.12718 0.49911,-0.40873 v -2.99255 c -0.139876,-0.0977 -0.298203,-0.14703 -0.511245,-0.1524 v -0.11521 h 0.955251 l 2.86632,2.98802 v -2.42301 c 0,-0.37099 -0.109961,-0.4378 -0.59683,-0.4498 v -0.11521 h 1.424623 v 0.11521 c -0.456812,0 -0.553685,0.0788 -0.553685,0.31722 v 3.39425 h -0.158221"
         style="fill:#231f20;fill-opacity:1;fill-rule:evenodd;stroke:none;stroke-width:0.03527778"
         id="path883"
         inkscape:connector-curvature="0" />
      <path
         d="m 82.393025,147.94057 h -1.479056 v -0.11493 c 0.37786,-0.0175 0.456142,-0.11547 0.456142,-0.52406 v -2.59182 c 0,-0.32826 -0.115218,-0.4203 -0.456142,-0.4378 v -0.11521 h 1.479056 v 0.11521 c -0.383787,0 -0.517172,0.0854 -0.517172,0.49294 v 2.57969 c 0,0.35895 0.09673,0.48105 0.517172,0.48105 v 0.11493"
         style="fill:#231f20;fill-opacity:1;fill-rule:evenodd;stroke:none;stroke-width:0.03527778"
         id="path885"
         inkscape:connector-curvature="0" />
      <path
         d="m 84.0224,147.01647 c 0.126788,0.5424 0.553685,0.85743 1.02803,0.85743 0.407493,0 0.839893,-0.23732 0.839893,-0.71703 0,-0.87711 -1.952943,-1.14501 -1.952943,-2.20994 0,-0.50507 0.462598,-0.88152 1.082711,-0.88152 0.511669,0 0.613939,0.1517 0.827793,0.1517 0.04823,0 0.07317,-0.0121 0.110102,-0.0604 h 0.09677 l 0.10347,0.77145 h -0.10347 c -0.170745,-0.43656 -0.559929,-0.7166 -0.980476,-0.7166 -0.400896,0 -0.680896,0.23026 -0.680896,0.57203 0,0.86389 1.953366,1.09555 1.953366,2.21425 0,0.59707 -0.529167,1.04041 -1.241496,1.04041 -0.334292,0 -0.7608,-0.16439 -0.845961,-0.16439 -0.05486,0 -0.0973,0.0306 -0.121391,0.0667 h -0.103787 l -0.127882,-0.9241 h 0.11617"
         style="fill:#231f20;fill-opacity:1;fill-rule:evenodd;stroke:none;stroke-width:0.03527778"
         id="path887"
         inkscape:connector-curvature="0" />
      <path
         d="m 89.821467,147.94057 v -0.11493 c 0.28,-0.007 0.395076,-0.0553 0.395076,-0.17033 0,-0.10308 -0.133244,-0.31072 -0.747995,-0.92533 -0.486022,-0.48645 -0.632248,-0.57739 -0.900959,-0.54667 v 1.13715 c 0,0.38308 0.109291,0.50518 0.487292,0.50518 h 0.07881 v 0.11493 h -1.667158 v -0.11493 h 0.109291 c 0.389855,0 0.487115,-0.1342 0.487115,-0.44359 v -2.67229 c 0,-0.36558 -0.164817,-0.4378 -0.487115,-0.4378 h -0.109291 v -0.11521 h 1.643028 v 0.11521 h -0.05468 c -0.365196,0 -0.487292,0.11508 -0.487292,0.4808 v 1.31382 c 0.237984,-0.0241 0.426085,-0.13367 0.68199,-0.38957 0.474733,-0.47431 0.846102,-1.02221 0.846102,-1.21652 0,-0.13921 -0.09148,-0.18853 -0.420299,-0.18853 v -0.11521 h 1.600588 v 0.11521 c -0.431871,0.005 -0.620783,0.0667 -0.803522,0.24875 -0.188242,0.18905 -0.572029,0.94989 -1.210874,1.43633 0.109396,0.0186 0.218969,0.10954 0.486868,0.37744 0.639128,0.63884 0.97977,1.11471 1.180818,1.31533 0.102941,0.10351 0.262114,0.17583 0.67497,0.17583 v 0.11493 h -1.782763"
         style="fill:#231f20;fill-opacity:1;fill-rule:evenodd;stroke:none;stroke-width:0.03527778"
         id="path889"
         inkscape:connector-curvature="0" />
      <path
         d="m 93.643709,146.26103 -0.353836,0.95649 c -0.04127,0.11507 -0.122414,0.29862 -0.122414,0.38297 0,0.16327 0.15875,0.22515 0.493536,0.22515 h 0.09913 v 0.11493 h -1.40776 v -0.11493 c 0.396346,-0.007 0.463726,-0.0723 0.658459,-0.60315 l 1.107017,-3.02454 -0.05468,-0.13254 h 0.529166 l 1.272117,3.37686 c 0.120297,0.32149 0.249061,0.38337 0.55492,0.38337 v 0.11493 h -1.674637 v -0.11493 h 0.159456 c 0.345369,0 0.474133,-0.0362 0.474133,-0.20656 0,-0.098 -0.04269,-0.18894 -0.06667,-0.2504 l -0.407458,-1.10765 z m 0.61983,-1.68508 -0.516466,1.41842 h 1.052689 z"
         style="fill:#231f20;fill-opacity:1;fill-rule:evenodd;stroke:none;stroke-width:0.03527778"
         id="path891"
         inkscape:connector-curvature="0" />
      <path
         d="m 72.692165,151.17829 v 0.11519 c -0.407882,0.006 -0.553967,0.17018 -0.553967,0.55975 v 1.64236 c 0,0.75543 -0.480519,1.56407 -1.801354,1.56407 -1.162121,0 -1.759091,-0.66283 -1.759091,-1.53349 v -1.77602 c 0,-0.38996 -0.108727,-0.45018 -0.522817,-0.45667 v -0.11519 h 1.563793 v 0.11519 h -0.05482 c -0.333905,0 -0.480131,0.0908 -0.480131,0.44319 v 1.6921 c 0,0.82225 0.480131,1.31491 1.386875,1.31491 0.687776,0 1.387934,-0.28649 1.387934,-1.32197 v -1.41566 c 0,-0.58399 -0.09133,-0.68858 -0.596406,-0.71257 v -0.11519 h 1.429985"
         style="fill:#231f20;fill-opacity:1;fill-rule:evenodd;stroke:none;stroke-width:0.03527778"
         id="path893"
         inkscape:connector-curvature="0" />
      <path
         d="m 77.748599,155.00495 -3.151575,-3.29749 v 2.61042 c 0,0.43822 0.09716,0.52916 0.61475,0.52916 v 0.1167 h -1.412628 v -0.1167 h 0.02413 c 0.378002,0 0.500098,-0.12749 0.500098,-0.40696 v -2.99544 c -0.140441,-0.0965 -0.29905,-0.14467 -0.512092,-0.15116 v -0.11519 h 0.956486 l 2.865791,2.9869 v -2.4215 c 0,-0.37137 -0.109573,-0.43822 -0.596018,-0.45021 v -0.11519 h 1.423775 v 0.11519 c -0.456811,0 -0.553966,0.0788 -0.553966,0.31598 v 3.39549 h -0.158751"
         style="fill:#231f20;fill-opacity:1;fill-rule:evenodd;stroke:none;stroke-width:0.03527778"
         id="path895"
         inkscape:connector-curvature="0" />
      <path
         d="m 81.534082,154.96374 h -1.478633 v -0.1167 c 0.377155,-0.0175 0.456142,-0.11536 0.456142,-0.52257 v -2.59291 c 0,-0.32812 -0.115923,-0.41946 -0.456142,-0.43808 v -0.11519 h 1.478633 v 0.11519 c -0.382941,0 -0.517031,0.0842 -0.517031,0.49279 v 2.57983 c 0,0.3605 0.09716,0.48094 0.517031,0.48094 v 0.1167"
         style="fill:#231f20;fill-opacity:1;fill-rule:evenodd;stroke:none;stroke-width:0.03527778"
         id="path897"
         inkscape:connector-curvature="0" />
      <path
         d="m 84.843173,155.05966 -1.32073,-3.29074 c -0.151588,-0.38464 -0.225178,-0.47544 -0.595983,-0.47544 v -0.11519 h 1.672943 v 0.11519 c -0.559788,0.012 -0.693173,0.13906 -0.577673,0.42058 l 1.094846,2.72602 0.961848,-2.5145 c 0.06685,-0.16989 0.103929,-0.29047 0.103929,-0.37634 0,-0.18203 -0.152436,-0.25576 -0.566103,-0.25576 v -0.11519 h 1.411252 v 0.11519 c -0.316406,0 -0.48013,0.14608 -0.626321,0.52366 l -1.253879,3.24252 h -0.304129"
         style="fill:#231f20;fill-opacity:1;fill-rule:evenodd;stroke:none;stroke-width:0.03527778"
         id="path899"
         inkscape:connector-curvature="0" />
      <path
         d="m 90.642769,153.59316 h -0.115887 c -0.04823,-0.4312 -0.164113,-0.48094 -0.414091,-0.48094 h -1.02803 v 1.29674 c 0,0.27986 0.103364,0.33472 0.328119,0.33472 h 0.937895 c 0.425274,0 0.553544,-0.1644 0.705556,-0.6882 h 0.110102 l -0.09839,0.90826 h -3.230951 v -0.1167 h 0.170603 c 0.486446,0 0.57203,-0.13257 0.57203,-0.49957 v -2.56808 c 0,-0.33983 -0.0798,-0.48591 -0.487575,-0.48591 h -0.133808 v -0.11519 h 2.921459 l 0.04946,0.84487 h -0.110102 c -0.07966,-0.51678 -0.230964,-0.62674 -0.450603,-0.62674 h -1.283794 v 1.49764 h 1.089061 c 0.218828,0 0.322756,-0.10459 0.35306,-0.45681 h 0.115887 v 1.15591"
         style="fill:#231f20;fill-opacity:1;fill-rule:evenodd;stroke:none;stroke-width:0.03527778"
         id="path901"
         inkscape:connector-curvature="0" />
      <path
         d="m 93.741428,154.3902 c 0,0.3659 0.14605,0.45684 0.48507,0.45684 h 0.140405 v 0.1167 h -1.722649 v -0.1167 h 0.10347 c 0.35941,0 0.487115,-0.0965 0.487115,-0.50507 v -2.56258 c 0,-0.37595 -0.104069,-0.48591 -0.456494,-0.48591 h -0.134091 v -0.11519 c 0.14538,0 0.517913,-0.0256 0.76768,-0.0378 0.248003,-0.012 0.371122,-0.0173 0.766233,-0.0173 1.12642,0 1.631598,0.46372 1.631598,1.08383 0,0.4553 -0.310798,0.83976 -0.810331,0.9857 0.22613,0.1753 0.409575,0.34562 0.694972,0.63267 l 0.479425,0.48052 c 0.359128,0.35924 0.73025,0.58399 1.198739,0.61461 v 0.10859 c -1.063272,0.0497 -1.337733,-0.18204 -1.879247,-0.7232 l -0.403225,-0.40061 c -0.267759,-0.269 -0.479425,-0.44577 -0.625475,-0.54226 -0.1524,0.005 -0.249061,0.012 -0.41522,0.012 -0.132644,0 -0.211666,-0.007 -0.307975,-0.012 z m 0,-1.14389 c 0.14605,0.0187 0.235656,0.0121 0.376414,0.0121 0.676628,0 1.118659,-0.28536 1.118659,-1.01561 0,-0.56649 -0.254706,-1.00429 -1.192037,-1.00429 -0.115358,0 -0.192969,0 -0.303036,0.0121 v 1.9957"
         style="fill:#231f20;fill-opacity:1;fill-rule:evenodd;stroke:none;stroke-width:0.03527778"
         id="path903"
         inkscape:connector-curvature="0" />
      <path
         d="m 98.034734,154.03798 c 0.127,0.5413 0.554214,0.85838 1.0287,0.85838 0.408164,0 0.839964,-0.23675 0.839964,-0.71769 0,-0.87753 -1.953331,-1.14388 -1.953331,-2.21036 0,-0.50465 0.463198,-0.88262 1.083734,-0.88262 0.510117,0 0.61348,0.15282 0.827969,0.15282 0.04939,0 0.07197,-0.012 0.109361,-0.0602 h 0.09666 l 0.10301,0.77252 h -0.10301 c -0.170033,-0.4378 -0.559853,-0.71935 -0.978953,-0.71935 -0.403225,0 -0.680508,0.2322 -0.680508,0.57354 0,0.86279 1.951561,1.0946 1.951561,2.21439 0,0.59708 -0.529161,1.04027 -1.241772,1.04027 -0.335139,0 -0.759531,-0.1633 -0.846667,-0.1633 -0.05468,0 -0.09631,0.0296 -0.12065,0.0674 h -0.10407 l -0.127353,-0.92576 h 0.115358"
         style="fill:#231f20;fill-opacity:1;fill-rule:evenodd;stroke:none;stroke-width:0.03527778"
         id="path905"
         inkscape:connector-curvature="0" />
      <path
         d="m 103.36027,154.96374 h -1.47991 v -0.1167 c 0.37748,-0.0175 0.45826,-0.11536 0.45826,-0.52257 v -2.59291 c 0,-0.32812 -0.11677,-0.41946 -0.45826,-0.43808 v -0.11519 h 1.47991 v 0.11519 c -0.38312,0 -0.51717,0.0842 -0.51717,0.49279 v 2.57983 c 0,0.3605 0.0981,0.48094 0.51717,0.48094 v 0.1167"
         style="fill:#231f20;fill-opacity:1;fill-rule:evenodd;stroke:none;stroke-width:0.03527778"
         id="path907"
         inkscape:connector-curvature="0" />
      <path
         d="m 106.67567,154.40219 c 0,0.32949 0.10972,0.44485 0.47943,0.44485 h 0.22613 v 0.1167 h -1.91805 v -0.1167 h 0.22507 c 0.37218,0 0.48225,-0.11536 0.48225,-0.44485 v -3.00577 h -1.05834 c -0.24377,0 -0.35348,0.14069 -0.4445,0.67497 h -0.10971 l 0.0963,-0.9857 h 0.115 c 0.008,0.0375 0.031,0.0616 0.0684,0.0736 0.036,0.0121 0.0776,0.019 0.12206,0.019 h 2.92524 c 0.0871,0 0.17815,-0.019 0.18908,-0.0926 h 0.11783 l 0.0963,0.9857 h -0.11007 c -0.0907,-0.53428 -0.20073,-0.67497 -0.44414,-0.67497 h -1.05834 v 3.00577"
         style="fill:#231f20;fill-opacity:1;fill-rule:evenodd;stroke:none;stroke-width:0.03527778"
         id="path909"
         inkscape:connector-curvature="0" />
      <path
         d="m 112.03331,153.59316 h -0.11501 c -0.0466,-0.4312 -0.16227,-0.48094 -0.4138,-0.48094 h -1.02623 v 1.29674 c 0,0.27986 0.1016,0.33472 0.32667,0.33472 h 0.93803 c 0.4244,0 0.55281,-0.1644 0.70697,-0.6882 h 0.10725 l -0.0967,0.90826 h -3.23038 v -0.1167 h 0.16968 c 0.48648,0 0.57186,-0.13257 0.57186,-0.49957 v -2.56808 c 0,-0.33983 -0.0801,-0.48591 -0.48578,-0.48591 h -0.13405 v -0.11519 h 2.92029 l 0.0494,0.84487 h -0.11007 c -0.079,-0.51678 -0.23001,-0.62674 -0.45014,-0.62674 h -1.28305 v 1.49764 h 1.08761 c 0.21978,0 0.32279,-0.10459 0.35242,-0.45681 h 0.11501 v 1.15591"
         style="fill:#231f20;fill-opacity:1;fill-rule:evenodd;stroke:none;stroke-width:0.03527778"
         id="path911"
         inkscape:connector-curvature="0" />
      <path
         d="m 115.626,154.40219 c 0,0.32949 0.1083,0.44485 0.47942,0.44485 h 0.22508 v 0.1167 h -1.917 v -0.1167 h 0.22507 c 0.37218,0 0.48225,-0.11536 0.48225,-0.44485 v -3.00577 h -1.06045 c -0.24271,0 -0.35242,0.14069 -0.44485,0.67497 h -0.10725 l 0.0963,-0.9857 h 0.11536 c 0.005,0.0375 0.0307,0.0616 0.0681,0.0736 0.036,0.0121 0.079,0.019 0.12029,0.019 h 2.92735 c 0.0868,0 0.17675,-0.019 0.18874,-0.0926 h 0.11501 l 0.0991,0.9857 h -0.10972 c -0.0914,-0.53428 -0.20073,-0.67497 -0.4445,-0.67497 h -1.0583 v 3.00577"
         style="fill:#231f20;fill-opacity:1;fill-rule:evenodd;stroke:none;stroke-width:0.03527778"
         id="path913"
         inkscape:connector-curvature="0" />
      <path
         d="m 122.74259,140.22137 c -2.21439,2.32392 -2.88784,5.36578 -1.78153,7.23978 0,0 -5.69278,2.57432 -11.07476,0.22754 -5.66737,-2.47111 -10.324744,0.97797 -10.324744,0.97797 l -0.0056,-1.39168 c 4.784724,-1.07431 4.047064,-2.54896 4.160304,-7.72096 v -7.46337 c 0,-5.2077 -0.0864,-5.24651 -4.099979,-5.53332 v -1.09996 c 0,0 2.291989,-0.006 6.125979,0 3.83293,0.01 5.88681,0 5.88681,0 v 1.09996 c -4.1081,0.28681 -4.19418,0.32562 -4.19418,5.53332 0,0 -0.0215,3.9116 0,7.57449 0.0201,3.63986 0.0699,5.09161 1.9625,6.5609 1.36772,1.06108 2.85045,1.31808 4.30495,1.33833 1.45098,0.0186 3.71052,-0.66559 4.85458,-1.88997 1.1437,-1.22453 1.52012,-2.38813 1.52012,-2.38813 0.40569,-0.87369 0.8008,-1.97475 1.21496,-3.24185 l 1.15711,0.13532 0.29352,0.0416"
         style="fill:#231f20;fill-opacity:1;fill-rule:evenodd;stroke:none;stroke-width:0.03527778"
         id="path915"
         inkscape:connector-curvature="0" />
    </g>
  </g>
</svg>
