<svg version="1.2" xmlns="http://www.w3.org/2000/svg" viewBox="0 0 162 97" width="162" height="97">
	<title>MDU_logotyp</title>
	<style>
		.s0 { fill: #000000 } 
		.s1 { fill: #ff4800 } 
	</style>
	<path class="s0" d="m0 52.2h3.7l3.1 8.6c0.3 1.1 0.5 1.9 0.5 1.9 0 0 0.3-0.8 0.5-2.1l3.2-8.4h3.6v14.1h-2.6v-11.5c0 0-0.2 1.3-0.8 2.9l-2.8 8.6h-2.1l-3.2-8.6c-0.5-1.6-0.7-2.9-0.7-2.9v11.5h-2.4z"/>
	<path class="s0" d="m16.7 59.2c0-1.8 1.6-3.1 3.9-3.1 3.2 0 4.2 1.3 4.2 3.9v3.7q0 0.8 0.8 0.8v1.8h-0.8c-1.3 0-2.1-0.2-2.3-1.5q-0.8 1.5-2.9 1.8c-2.1 0-3.4-1.3-3.4-3.2q0-0.2 0-0.5 0.3-0.5 0.3-0.8 0.2-0.2 0.5-0.5 0.2-0.3 0.8-0.5c1-0.5 2.3-0.8 4.7-0.8v-0.5q0-1.9-1.9-1.9c-1 0-1.5 0.6-1.5 1.3zm1-7h2.4v2.3h-2.4zm4.7 9.7v-0.2c-1.8 0.2-2.6 0.2-3.1 0.8q-0.3 0-0.3 0-0.2 0.2-0.2 0.2 0 0.3 0 0.5 0 0 0 0.3c0 0.8 0.5 1.3 1.3 1.3 1 0 2.3-0.8 2.3-2.9zm-0.8-9.7h2.4v2.1h-2.4z"/>
	<path fill-rule="evenodd" class="s0" d="m29.8 52.2v14.1h-2.6v-14.1z"/>
	<path class="s0" d="m31.4 59.2c0-1.8 1.5-3.1 4.1-3.1 2.9 0 4 1.3 4 3.9v3.7q0 0.8 0.7 0.8v1.8h-0.5c-1.6 0-2.1-0.2-2.3-1.5h-0.3q-0.8 1.5-2.9 1.8c-2.1 0-3.4-1.3-3.4-3.2q0-0.2 0.3-0.5 0-0.5 0.3-0.8 0-0.2 0.5-0.5 0.2-0.3 0.5-0.5 1.6-0.8 4.7-0.8v-0.5q0-1.9-1.6-1.9c-1.3 0-1.8 0.6-1.8 1.3zm5.8 2.9v-0.2c-1.9 0-2.7 0.2-3.2 0.5q-0.2 0-0.2 0.3 0 0-0.3 0.2 0 0 0 0.3 0 0 0 0.2c0 0.8 0.5 1.4 1.3 1.4 1.3 0 2.4-0.8 2.4-2.7z"/>
	<path class="s0" d="m41.8 56.4h2.4v2.1q0.2-0.6 0.5-0.8 0.2-0.5 0.8-0.8 0.5-0.3 1-0.5 0.5 0 1.1 0v2.3h-0.6c-1.5 0-2.6 0.5-2.6 2.6v5h-2.6z"/>
	<path class="s0" d="m57.2 66.3h-2.3v-1.5q-0.3 0.5-0.6 0.7-0.2 0.3-0.7 0.6-0.3 0.2-0.8 0.2-0.5 0.3-1.1 0.3c-2.3 0-3.9-1.6-3.9-5 0-3.7 1.8-5.5 4.2-5.5 1.3 0 2.3 0.8 2.9 1.8v-5.7h2.3zm-2.3-5.5c0-1.9-1.1-2.9-2.4-2.9-1.3 0-2.3 1.3-2.3 3.4 0 2.1 0.8 3.4 2.3 3.4 1.6 0 2.4-1.1 2.4-2.6z"/>
	<path class="s0" d="m59.1 59.2c0-1.8 1.5-3.1 4.1-3.1 2.9 0 4 1.3 4 3.9v3.7c0 0.5 0.2 0.8 1 0.8v1.8h-0.8c-1.6 0-2.1-0.2-2.3-1.5q-1.1 1.5-3.2 1.8c-2.1 0-3.4-1.3-3.4-3.2q0-0.2 0.3-0.5 0-0.5 0.3-0.8 0.2-0.2 0.5-0.5 0.2-0.3 0.5-0.5 1.6-0.8 4.7-0.8v-0.5q0-1.9-1.6-1.9c-1.3 0-1.8 0.6-1.8 1.3zm5.8 2.9v-0.2c-1.6 0-2.7 0.2-3.2 0.5q0 0-0.2 0.3 0 0 0 0.2-0.3 0-0.3 0.3 0 0 0 0.2c0 0.8 0.5 1.4 1.6 1.4 1 0 2.1-0.8 2.1-2.7z"/>
	<path fill-rule="evenodd" class="s0" d="m72.1 52.2v14.1h-2.6v-14.1z"/>
	<path class="s0" d="m78.1 66.6c-2.8 0-4.7-2.1-4.7-5.3 0-2.8 1.9-5.2 4.7-5.2 3.4 0 4.7 2.4 4.7 5v0.8h-6.8q0.3 2.9 2.4 2.9c1.3 0 1.6-0.6 1.8-1.4h2.4c-0.3 2.1-1.9 3.2-4.5 3.2zm2.1-6.3c0-1.6-0.5-2.4-2.1-2.4-1.3 0-1.8 0.8-2.1 2.7h4.2z"/>
	<path class="s0" d="m90.7 60.6c0-0.8 0-1.6-0.3-1.9q-0.3-0.2-0.3-0.2-0.2-0.3-0.5-0.3 0 0-0.2 0-0.3 0-0.6 0c-1.3 0-2.1 0.8-2.1 2.4v5.7h-2.6v-9.9h2.4v1.8h0.2q0-0.5 0.6-0.8 0.2-0.5 0.8-0.8 0.2-0.2 0.7-0.2 0.6-0.3 1.1-0.3 3.1 0 3.1 3.7v6.5h-2.3z"/>
	<path class="s0" d="m100.3 59c-0.2-0.5-0.7-1.1-1.8-1.1-0.8 0-1.6 0.6-1.6 1.1 0 0.8 0.6 1 1.3 1.3l1.6 0.3c2.1 0 2.9 1 2.9 2.8 0 2.1-1.6 3.2-3.9 3.2-2.6 0-4.2-1.1-4.2-3.2h2.1c0.2 0.8 0.5 1.6 2.1 1.6 1 0 1.8-0.5 1.8-1.3 0-0.8-0.3-1-1.3-1.3l-1.6-0.3c-1.8 0-2.9-1-2.9-2.9 0-1.5 1.4-3.1 4-3.1 2.3 0 3.6 1.3 3.6 2.9z"/>
	<path class="s0" d="m17 80c0 0.7 0 1.3 0.5 1.8q0.3 0.5 1.3 0.5c1.3 0 2.1-1 2.1-2.9v-5.2h2.6v9.7h-2.3v-1.6h-0.3c-0.3 1.1-1.3 1.9-2.9 1.9-2.3 0-3.4-1.1-3.4-3.5v-6.5h2.4z"/>
	<path class="s0" d="m31.9 78.1c0-0.8 0-1.3-0.3-1.8q-0.2 0-0.5-0.3 0 0-0.3 0-0.2-0.2-0.2-0.2-0.3 0-0.6 0c-1.3 0-2 1-2 2.3v5.8h-2.7v-9.7h2.4v1.6q0.3-0.6 0.8-0.8 0.2-0.3 0.8-0.5 0.2-0.3 0.7-0.6 0.6 0 1.1 0 3.1 0 3.1 3.4v6.6h-2.3z"/>
	<path class="s0" d="m36.1 70h2.6v2.4h-2.6zm0.2 4.2h2.4v9.7h-2.4z"/>
	<path class="s0" d="m39.7 74.2h2.4l1.8 5.5q0 0.3 0.3 0.5 0 0 0 0.3 0 0.2 0.2 0.5 0 0.3 0 0.5c0 0 0.3-1 0.5-1.8l1.9-5.5h2.3l-3.4 9.7h-2.6z"/>
	<path class="s0" d="m54.1 84.2c-3.1 0-4.7-2.1-4.7-5 0-3.2 1.8-5.3 4.7-5.3 3.1 0 4.7 2.1 4.7 5v0.8h-6.8q0 2.9 2.1 2.9c1.6 0 1.8-0.8 2.1-1.3h2.3c-0.2 1.8-1.8 2.9-4.4 2.9zm2.1-6.1c-0.3-1.5-0.8-2.6-2.1-2.6-1.3 0-2.1 1.1-2.1 2.6z"/>
	<path class="s0" d="m60.1 74.2h2.3v1.8q0.3-0.2 0.6-0.8 0.5-0.5 0.8-0.7 0.5-0.3 1-0.3 0.5-0.3 1-0.3v2.4h-0.5c-1.5 0-2.6 0.8-2.6 2.6v5h-2.6z"/>
	<path class="s0" d="m71.9 76.8c0-0.8-0.6-1.3-1.6-1.3-1.1 0-1.6 0.5-1.6 1.3 0 0.5 0.5 1.1 1.3 1.1l1.6 0.2c2.1 0.3 2.9 1.1 2.9 2.9 0 2.1-1.9 3.2-4.2 3.2-2.6 0-3.9-1.1-4.2-2.9h2.4c0 0.5 0.5 1.3 1.8 1.3 1.3 0 1.8-0.5 1.8-1.3 0-0.6-0.2-1.1-1.3-1.1l-1.6-0.2c-1.8-0.3-2.8-1.1-2.8-2.9 0-1.9 1.3-3.2 3.9-3.2 2.6 0 3.9 1.1 3.9 2.9z"/>
	<path class="s0" d="m76 70h2.6v2.4h-2.6zm0 4.2h2.4v9.7h-2.4z"/>
	<path class="s0" d="m83.6 71.3v2.9h2.4v1.8h-2.1v4.7c0 1.1 0.2 1.6 1.3 1.6q0 0 0.2 0 0 0 0.3 0 0 0 0.3-0.2v1.8q0 0.3-0.3 0.3-0.3 0-0.5 0-0.3 0-0.5 0-0.3 0-0.6 0c-1.8 0-2.8-0.8-2.8-2.9v-5.3h-1.6v-1.8h0.3c1.3 0 1.5-0.3 1.5-2.1v-0.8z"/>
	<path class="s0" d="m91.5 84.2c-3.2 0-4.8-2.1-4.8-5 0-3.2 1.6-5.3 4.8-5.3 3.1 0 4.4 2.1 4.4 5v0.8h-6.8q0.3 2.9 2.4 2.9c1.3 0 1.8-0.8 2-1.3h2.4c-0.3 1.8-1.8 2.9-4.4 2.9zm2-6.1c-0.2-1.5-0.7-2.6-2-2.6-1.4 0-2.1 1.1-2.1 2.6z"/>
	<path class="s0" d="m100.3 71.3v2.9h2.4v1.8h-2.4v4.7q0 1.6 1.6 1.6 0 0 0.3 0 0 0 0.2 0 0 0 0-0.2 0.3 0 0.3 0v1.8q-0.3 0.3-0.3 0.3-0.2 0-0.5 0-0.3 0-0.5 0-0.3 0-0.5 0c-1.9 0-2.9-0.8-2.9-2.9v-5.3h-1.6v-1.8h0.3c1.3 0 1.5-0.3 1.5-2.1v-0.8z"/>
	<path class="s0" d=""/>
	<g>
		<path fill-rule="evenodd" class="s1" d="m43.9 1v43.8h-14.6v-43.8z"/>
		<path class="s1" d="m55.4 0c-4.2 0-7.8 1-10.7 2.4 4.2-0.6 13.8 0 13.8 17v25.4h14.7v-27c0-15.7-9.2-17.8-17.8-17.8z"/>
		<path class="s1" d="m84.7 0c-5.3 0-10.8 0.8-14.9 2.9v0.2c7-0.7 18-1 18 16.8v24.9h14.6v-27c0-15.7-8.9-17.8-17.7-17.8z"/>
	</g>
	<g>
		<path class="s1" d="m161.2 52.2v20.7c0 18.1-7.6 23.8-18.3 23.8-11.7 0-18.3-2.8-18.3-20.9v-23.6h-14.9v20.7c0 18.1 7.6 23.8 18.6 23.8 11.5 0 18.3-2.8 18.3-20.9v-23.6z"/>
	</g>
	<path fill-rule="evenodd" class="s1" d="m124.6 1v43.8h-14.9v-43.8z"/>
	<path class="s1" d="m125.2 44.8c13.3 0 21.1-8.4 21.1-21.7 0-13.4-7.8-22.1-21.1-22.1q1-0.2 2-0.5 1.1 0 2.1 0 1.1-0.2 2.1-0.2 1.1 0 2.4 0c12.8 0 28.2 4.7 28.2 22.5 0 18.1-15.4 22.8-28.2 22.8q-1.1 0-2.4 0-1 0-2.1-0.2-1 0-2.1-0.3-1 0-2-0.3z"/>
	<path fill-rule="evenodd" class="s1" d="m43.9 44.8v-43.8h-14.6"/>
</svg>